<svg xmlns="http://www.w3.org/2000/svg" xmlns:xlink="http://www.w3.org/1999/xlink" xml:space="preserve" version="1.1" style="shape-rendering:geometricPrecision;text-rendering:geometricPrecision;image-rendering:optimizeQuality;" viewBox="0 0 333.33 330" x="0px" y="0px" fill-rule="evenodd" clip-rule="evenodd"><defs><style type="text/css">
   
    .fil0 {fill:black}
   
  </style></defs><g><path class="fil0" d="M78.5 299.93c-9.72,0 -21.93,-5.42 -21.98,-16.58l-0.06 -14.78 207.44 0 0 -4.36 -206.93 0c2.57,-11.9 13.89,-38.06 13.89,-51.68l0 -35.8 -12.61 0c-13.79,0 -17.74,-10.11 -17.03,-22.46l0 -34.4c0,-9.07 3.93,-13.98 13.7,-13.89l54.81 0.56 0 42.84 -7.26 0 0 4.51c46.26,0 92.5,0 138.76,0l0 -4.51 -7.26 0 0 -42.84 54.81 -0.56c9.77,-0.1 13.7,4.81 13.7,13.89l0 34.4c0.71,12.35 -3.24,22.46 -17.03,22.46l-12.61 0 0 35.8c0,15.37 14.43,46.76 14.4,55.52l-0.06 15.3c-0.04,11.15 -12.25,16.58 -21.98,16.58l-186.71 0zm35.75 -266.53c24.69,0 49.37,0 74.06,0l0 41.16 41.15 0c0,24.93 0,49.88 0,74.81l-115.21 0 0 -115.97zm66.38 16.37l-8.93 0 0 5.69 8.93 0 0 -5.69zm-59.16 76.66l100.75 0 0 5.69 -100.75 0 0 -5.69zm0 -12.78l100.75 0 0 5.69 -100.75 0 0 -5.69zm0 -12.77l100.75 0 0 5.69 -100.75 0 0 -5.69zm23.96 -12.78l76.79 0 0 5.69 -76.79 0 0 -5.69zm-23.96 -19.6l19.61 0 0 5.69 -19.61 0 0 -5.69zm0 -18.73l46.7 0 0 5.69 -46.7 0 0 -5.69zm70.85 -16.37l37.14 37.39 -37.14 0 0 -37.39zm32.01 132.87c0,21.39 -23.12,38.72 -51.63,38.72 -28.53,0 -51.63,-17.33 -51.63,-38.72l103.26 0zm-189 -30.06l-11.62 0c-2.35,0 -4.23,1.87 -4.23,4.22l0 18.29 -12.02 0 0 -18.29c0,-8.92 7.33,-16.24 16.25,-16.24l11.62 0 0 12.02zm273.06 -17.63l17.49 0 0 36.98 -17.49 0 0 -36.98zm-136.57 135.49c15.87,0 28.74,-1.87 28.74,-4.19 0,-2.31 -12.86,-4.18 -28.74,-4.18 -15.86,0 -28.72,1.87 -28.72,4.18 0,2.31 12.86,4.19 28.72,4.19zm-88.44 0c5.06,0 9.16,-1.87 9.16,-4.19 0,-2.31 -4.1,-4.18 -9.16,-4.18 -5.06,0 -9.15,1.87 -9.15,4.18 0,2.31 4.1,4.19 9.15,4.19zm22.11 0c5.06,0 9.16,-1.87 9.16,-4.19 0,-2.31 -4.1,-4.18 -9.16,-4.18 -5.06,0 -9.15,1.87 -9.15,4.18 0,2.31 4.1,4.19 9.15,4.19zm132.69 0c5.06,0 9.16,-1.87 9.16,-4.19 0,-2.31 -4.1,-4.18 -9.16,-4.18 -5.06,0 -9.16,1.87 -9.16,4.18 0,2.31 4.09,4.19 9.16,4.19zm-147.59 -12.33c4.65,0 8.41,-1.88 8.41,-4.19 0,-2.31 -3.76,-4.19 -8.41,-4.19 -4.65,0 -8.41,1.88 -8.41,4.19 0,2.31 3.76,4.19 8.41,4.19zm20.31 0c4.65,0 8.41,-1.88 8.41,-4.19 0,-2.31 -3.76,-4.19 -8.41,-4.19 -4.65,0 -8.41,1.88 -8.41,4.19 0,2.31 3.77,4.19 8.41,4.19zm20.31 0c4.65,0 8.42,-1.88 8.42,-4.19 0,-2.31 -3.77,-4.19 -8.42,-4.19 -4.65,0 -8.41,1.88 -8.41,4.19 0,2.31 3.77,4.19 8.41,4.19zm20.31 0c4.65,0 8.41,-1.88 8.41,-4.19 0,-2.31 -3.77,-4.19 -8.41,-4.19 -4.65,0 -8.41,1.88 -8.41,4.19 0,2.31 3.76,4.19 8.41,4.19zm20.31 0c4.65,0 8.41,-1.88 8.41,-4.19 0,-2.31 -3.76,-4.19 -8.41,-4.19 -4.65,0 -8.41,1.88 -8.41,4.19 0,2.31 3.76,4.19 8.41,4.19zm20.31 0c4.65,0 8.41,-1.88 8.41,-4.19 0,-2.31 -3.76,-4.19 -8.41,-4.19 -4.65,0 -8.41,1.88 -8.41,4.19 0,2.31 3.77,4.19 8.41,4.19zm20.31 0c4.65,0 8.42,-1.88 8.42,-4.19 0,-2.31 -3.77,-4.19 -8.42,-4.19 -4.65,0 -8.41,1.88 -8.41,4.19 0,2.31 3.76,4.19 8.41,4.19zm20.31 0c4.65,0 8.41,-1.88 8.41,-4.19 0,-2.31 -3.76,-4.19 -8.41,-4.19 -4.65,0 -8.41,1.88 -8.41,4.19 0,2.31 3.76,4.19 8.41,4.19zm20.35 0c4.65,0 8.42,-1.88 8.42,-4.19 0,-2.31 -3.76,-4.19 -8.42,-4.19 -4.65,0 -8.41,1.88 -8.41,4.19 0,2.31 3.76,4.19 8.41,4.19zm-153.26 -12.33c4.12,0 7.45,-1.87 7.45,-4.18 0,-2.31 -3.33,-4.19 -7.45,-4.19 -4.12,0 -7.45,1.87 -7.45,4.19 0,2.31 3.33,4.18 7.45,4.18zm18 0c4.12,0 7.45,-1.87 7.45,-4.18 0,-2.31 -3.33,-4.19 -7.45,-4.19 -4.12,0 -7.45,1.87 -7.45,4.19 0,2.31 3.33,4.18 7.45,4.18zm18 0c4.12,0 7.45,-1.87 7.45,-4.18 0,-2.31 -3.33,-4.19 -7.45,-4.19 -4.12,0 -7.45,1.87 -7.45,4.19 0,2.31 3.33,4.18 7.45,4.18zm18 0c4.12,0 7.45,-1.87 7.45,-4.18 0,-2.31 -3.33,-4.19 -7.45,-4.19 -4.11,0 -7.45,1.87 -7.45,4.19 0,2.31 3.34,4.18 7.45,4.18zm18 0c4.12,0 7.46,-1.87 7.46,-4.18 0,-2.31 -3.34,-4.19 -7.46,-4.19 -4.11,0 -7.45,1.87 -7.45,4.19 0,2.31 3.34,4.18 7.45,4.18zm18 0c4.12,0 7.46,-1.87 7.46,-4.18 0,-2.31 -3.34,-4.19 -7.46,-4.19 -4.11,0 -7.45,1.87 -7.45,4.19 0,2.31 3.34,4.18 7.45,4.18zm18 0c4.11,0 7.45,-1.87 7.45,-4.18 0,-2.31 -3.34,-4.19 -7.45,-4.19 -4.12,0 -7.46,1.87 -7.46,4.19 0,2.31 3.34,4.18 7.46,4.18zm18 0c4.11,0 7.45,-1.87 7.45,-4.18 0,-2.31 -3.34,-4.19 -7.45,-4.19 -4.12,0 -7.46,1.87 -7.46,4.19 0,2.31 3.34,4.18 7.46,4.18zm18.02 0c4.12,0 7.46,-1.87 7.46,-4.18 0,-2.31 -3.34,-4.19 -7.46,-4.19 -4.11,0 -7.45,1.87 -7.45,4.19 0,2.31 3.34,4.18 7.45,4.18zm-178.36 -68.71l212.73 0 0 5.57 -49.38 0c0,28.71 -31.77,43.87 -56.99,43.87 -25.22,0 -56.99,-15.15 -56.99,-43.87l-49.38 0 0 -5.57z"/></g></svg>
