<?xml version="1.0" encoding="UTF-8" standalone="no"?>
<!-- Created with Inkscape (http://www.inkscape.org/) -->

<svg
   xmlns:osb="http://www.openswatchbook.org/uri/2009/osb"
   xmlns:dc="http://purl.org/dc/elements/1.1/"
   xmlns:cc="http://creativecommons.org/ns#"
   xmlns:rdf="http://www.w3.org/1999/02/22-rdf-syntax-ns#"
   xmlns:svg="http://www.w3.org/2000/svg"
   xmlns="http://www.w3.org/2000/svg"
   xmlns:sodipodi="http://sodipodi.sourceforge.net/DTD/sodipodi-0.dtd"
   xmlns:inkscape="http://www.inkscape.org/namespaces/inkscape"
   width="210mm"
   height="297mm"
   viewBox="0 0 744.09448819 1052.3622047"
   id="svg2"
   version="1.1"
   inkscape:version="0.91 r13725"
   sodipodi:docname="typewriter-new.svg">
  <defs
     id="defs4">
    <linearGradient
       id="linearGradient4161"
       osb:paint="solid">
      <stop
         style="stop-color:#ffffff;stop-opacity:1;"
         offset="0"
         id="stop4163" />
    </linearGradient>
    <linearGradient
       id="linearGradient4155"
       osb:paint="solid">
      <stop
         style="stop-color:#000000;stop-opacity:0.49162012;"
         offset="0"
         id="stop4157" />
    </linearGradient>
  </defs>
  <sodipodi:namedview
     id="base"
     pagecolor="#ffffff"
     bordercolor="#666666"
     borderopacity="1.0"
     inkscape:pageopacity="0.0"
     inkscape:pageshadow="2"
     inkscape:zoom="1.4142136"
     inkscape:cx="319.3502"
     inkscape:cy="533.30115"
     inkscape:document-units="px"
     inkscape:current-layer="layer1"
     showgrid="false"
     showguides="false"
     inkscape:guide-bbox="true"
     inkscape:window-width="1600"
     inkscape:window-height="805"
     inkscape:window-x="-8"
     inkscape:window-y="35"
     inkscape:window-maximized="1" />
  <metadata
     id="metadata7">
    <rdf:RDF>
      <cc:Work
         rdf:about="">
        <dc:format>image/svg+xml</dc:format>
        <dc:type
           rdf:resource="http://purl.org/dc/dcmitype/StillImage" />
        <dc:title></dc:title>
      </cc:Work>
    </rdf:RDF>
  </metadata>
  <g
     inkscape:label="Layer 1"
     inkscape:groupmode="layer"
     id="layer1">
    <path
       style="fill:#001139;fill-rule:evenodd;stroke:none;stroke-width:1px;stroke-linecap:butt;stroke-linejoin:miter;stroke-opacity:1;fill-opacity:1"
       d="M 236.16016 458.36133 L 236.16016 474.86133 L 236.16406 474.86133 L 236.16406 619.54102 C 238.09089 632.93088 244.87626 638.81647 255.56836 641.23047 L 414.16211 640.72461 C 424.06676 639.08884 433.11479 630.5742 433.85938 621.54492 L 433.85938 480.05859 L 433.85742 480.05859 L 433.85742 458.36133 L 416.10547 458.36133 L 416.10547 458.36328 L 406.35742 458.36328 L 406.35742 475.28906 L 416.10547 475.28906 L 416.10547 523.09375 L 253.09961 523.09375 L 253.09961 475.28711 L 263.40234 475.28711 L 263.37109 458.36133 L 253.09961 458.36133 L 243.88086 458.36133 L 236.16016 458.36133 z M 276.53711 544.4043 A 8.3190966 6.6705956 0 0 1 284.85547 551.07422 A 8.3190966 6.6705956 0 0 1 276.53711 557.74414 A 8.3190966 6.6705956 0 0 1 268.2168 551.07422 A 8.3190966 6.6705956 0 0 1 276.53711 544.4043 z M 393.45508 544.4043 A 8.3190966 6.6705956 0 0 1 401.77344 551.07422 A 8.3190966 6.6705956 0 0 1 393.45508 557.74414 A 8.3190966 6.6705956 0 0 1 385.13477 551.07422 A 8.3190966 6.6705956 0 0 1 393.45508 544.4043 z M 346.73828 544.4082 A 8.3190966 6.6705956 0 0 1 355.05664 551.07812 A 8.3190966 6.6705956 0 0 1 346.73828 557.75 A 8.3190966 6.6705956 0 0 1 338.41797 551.07812 A 8.3190966 6.6705956 0 0 1 346.73828 544.4082 z M 300.01562 544.65625 A 8.3190966 6.6705956 0 0 1 308.33398 551.32617 A 8.3190966 6.6705956 0 0 1 300.01562 557.99805 A 8.3190966 6.6705956 0 0 1 291.69531 551.32617 A 8.3190966 6.6705956 0 0 1 300.01562 544.65625 z M 323.24805 544.65625 A 8.3190966 6.6705956 0 0 1 331.56836 551.32617 A 8.3190966 6.6705956 0 0 1 323.24805 557.99805 A 8.3190966 6.6705956 0 0 1 314.92969 551.32617 A 8.3190966 6.6705956 0 0 1 323.24805 544.65625 z M 370.2207 544.65625 A 8.3190966 6.6705956 0 0 1 378.53906 551.32617 A 8.3190966 6.6705956 0 0 1 370.2207 557.99805 A 8.3190966 6.6705956 0 0 1 361.90234 551.32617 A 8.3190966 6.6705956 0 0 1 370.2207 544.65625 z M 335.11719 561.07031 A 8.3190966 6.6705956 0 0 1 343.4375 567.74219 A 8.3190966 6.6705956 0 0 1 335.11719 574.41211 A 8.3190966 6.6705956 0 0 1 326.79883 567.74219 A 8.3190966 6.6705956 0 0 1 335.11719 561.07031 z M 406.33398 561.07031 A 8.3190966 6.6705956 0 0 1 414.65234 567.74219 A 8.3190966 6.6705956 0 0 1 406.33398 574.41211 A 8.3190966 6.6705956 0 0 1 398.01562 567.74219 A 8.3190966 6.6705956 0 0 1 406.33398 561.07031 z M 263.49414 561.23438 A 8.3190966 6.6705956 0 0 1 271.8125 567.9043 A 8.3190966 6.6705956 0 0 1 263.49414 574.57617 A 8.3190966 6.6705956 0 0 1 255.17383 567.9043 A 8.3190966 6.6705956 0 0 1 263.49414 561.23438 z M 382.59766 561.32031 A 8.3190966 6.6705956 0 0 1 390.91602 567.99219 A 8.3190966 6.6705956 0 0 1 382.59766 574.66211 A 8.3190966 6.6705956 0 0 1 374.2793 567.99219 A 8.3190966 6.6705956 0 0 1 382.59766 561.32031 z M 287.64062 561.32422 A 8.3190966 6.6705956 0 0 1 295.96094 567.99414 A 8.3190966 6.6705956 0 0 1 287.64062 574.66406 A 8.3190966 6.6705956 0 0 1 279.32227 567.99414 A 8.3190966 6.6705956 0 0 1 287.64062 561.32422 z M 310.875 561.32422 A 8.3190966 6.6705956 0 0 1 319.19336 567.99414 A 8.3190966 6.6705956 0 0 1 310.875 574.66406 A 8.3190966 6.6705956 0 0 1 302.55469 567.99414 A 8.3190966 6.6705956 0 0 1 310.875 561.32422 z M 358.85742 561.32422 A 8.3190966 6.6705956 0 0 1 367.17578 567.99414 A 8.3190966 6.6705956 0 0 1 358.85742 574.66406 A 8.3190966 6.6705956 0 0 1 350.53711 567.99414 A 8.3190966 6.6705956 0 0 1 358.85742 561.32422 z M 276.78125 576.47656 A 8.3190966 6.6705956 0 0 1 285.10156 583.14648 A 8.3190966 6.6705956 0 0 1 276.78125 589.81641 A 8.3190966 6.6705956 0 0 1 268.46289 583.14648 A 8.3190966 6.6705956 0 0 1 276.78125 576.47656 z M 323.75391 576.47656 A 8.3190966 6.6705956 0 0 1 332.07227 583.14648 A 8.3190966 6.6705956 0 0 1 323.75391 589.81641 A 8.3190966 6.6705956 0 0 1 315.43555 583.14648 A 8.3190966 6.6705956 0 0 1 323.75391 576.47656 z M 300.26758 576.72852 A 8.3190966 6.6705956 0 0 1 308.58789 583.39844 A 8.3190966 6.6705956 0 0 1 300.26758 590.07031 A 8.3190966 6.6705956 0 0 1 291.94922 583.39844 A 8.3190966 6.6705956 0 0 1 300.26758 576.72852 z M 393.20117 576.72852 A 8.3190966 6.6705956 0 0 1 401.52148 583.39844 A 8.3190966 6.6705956 0 0 1 393.20117 590.07031 A 8.3190966 6.6705956 0 0 1 384.88281 583.39844 A 8.3190966 6.6705956 0 0 1 393.20117 576.72852 z M 370.46484 576.73047 A 8.3190966 6.6705956 0 0 1 378.78516 583.40234 A 8.3190966 6.6705956 0 0 1 370.46484 590.07227 A 8.3190966 6.6705956 0 0 1 362.14648 583.40234 A 8.3190966 6.6705956 0 0 1 370.46484 576.73047 z M 346.98828 576.98047 A 8.3190966 6.6705956 0 0 1 355.30664 583.65234 A 8.3190966 6.6705956 0 0 1 346.98828 590.32227 A 8.3190966 6.6705956 0 0 1 338.66797 583.65234 A 8.3190966 6.6705956 0 0 1 346.98828 576.98047 z M 281.83203 594.13086 L 390.29688 594.13086 L 390.29688 594.1875 A 8.3189659 6.7056212 0 0 1 398.49023 600.88867 A 8.3189659 6.7056212 0 0 1 390.29688 607.58984 L 390.29688 607.64258 L 281.83203 607.64258 L 281.83203 607.58594 A 8.3189621 6.7062335 0 0 1 273.66797 600.88672 A 8.3189621 6.7062335 0 0 1 281.83203 594.18359 L 281.83203 594.13086 z "
       id="path3347"
       inkscape:export-xdpi="160"
       inkscape:export-ydpi="160" />
    <g
       id="g4710"
       inkscape:export-xdpi="160"
       inkscape:export-ydpi="160">
      <path
         inkscape:connector-curvature="0"
         id="rect4483"
         d="m 278.0625,420.42471 34,0 0,29.5 -34,0 z"
         style="fill:#001139;fill-opacity:1;stroke:none;stroke-width:0.1;stroke-miterlimit:4;stroke-dasharray:none" />
      <path
         inkscape:connector-curvature="0"
         id="rect4485"
         d="m 316.75,420.36221 53.25,0 0,4.25 -53.25,0 z"
         style="fill:#001139;fill-opacity:1;stroke:none;stroke-width:0.1;stroke-miterlimit:4;stroke-dasharray:none" />
      <path
         inkscape:connector-curvature="0"
         id="rect4485-2"
         d="m 316.875,439.48721 53.25,0 0,4.25 -53.25,0 z"
         style="fill:#001139;fill-opacity:1;stroke:none;stroke-width:0.1;stroke-miterlimit:4;stroke-dasharray:none" />
      <path
         inkscape:connector-curvature="0"
         id="rect4502"
         d="m 278.0625,457.36221 112.75,0 0,3.75 -112.75,0 z"
         style="fill:#001139;fill-opacity:1;stroke:none;stroke-width:0.1;stroke-miterlimit:4;stroke-dasharray:none" />
      <path
         inkscape:connector-curvature="0"
         id="rect4502-1"
         d="m 278.0625,474.54971 112.75,0 0,3.75 -112.75,0 z"
         style="fill:#001139;fill-opacity:1;stroke:none;stroke-width:0.1;stroke-miterlimit:4;stroke-dasharray:none" />
      <path
         inkscape:connector-curvature="0"
         id="rect4502-0"
         d="m 278.0625,491.92471 112.75,0 0,3.75 -112.75,0 z"
         style="fill:#001139;fill-opacity:1;stroke:none;stroke-width:0.1;stroke-miterlimit:4;stroke-dasharray:none" />
      <path
         inkscape:connector-curvature="0"
         id="rect4502-10"
         d="m 278.0625,508.67471 112.75,0 0,3.75 -112.75,0 z"
         style="fill:#001139;fill-opacity:1;stroke:none;stroke-width:0.1;stroke-miterlimit:4;stroke-dasharray:none" />
      <path
         inkscape:export-ydpi="160"
         inkscape:export-xdpi="160"
         inkscape:connector-curvature="0"
         id="path4481"
         d="m 263.7528,401.36501 114.74548,0 27.49892,32.8663 0,90.0031 -141.99441,0 z"
         style="fill:none;fill-rule:evenodd;stroke:#001139;stroke-width:1.00559986px;stroke-linecap:butt;stroke-linejoin:miter;stroke-opacity:1" />
    </g>
  </g>
</svg>
